<svg version="1.1" id="Layer_1" xmlns="http://www.w3.org/2000/svg" xmlns:xlink="http://www.w3.org/1999/xlink" x="0px" y="0px"
	 width="100%" viewBox="0 0 437 114" enable-background="new 0 0 437 114" xml:space="preserve">
<path fill="#010101" opacity="1.000000" stroke="none" 
	d="
M437.716736,57.781578 
	C438.000000,75.992844 437.947327,93.986031 438.061920,111.978142 
	C438.077484,114.423492 437.577881,115.067665 435.023804,115.066338 
	C291.414276,114.991753 147.804703,114.988434 4.195199,115.082565 
	C1.309925,115.084450 0.921653,114.357910 0.929467,111.697525 
	C1.034677,75.878738 1.040899,40.059410 0.920424,4.240721 
	C0.911038,1.450285 1.503105,0.923837 4.257007,0.925460 
	C147.699936,1.009985 291.142914,1.015436 434.585785,0.901136 
	C437.806000,0.898570 438.087311,1.834752 438.065826,4.583596 
	C437.934296,21.409101 438.000000,38.236149 438.000000,55.531342 
	C435.705688,57.459263 434.661469,55.522942 433.522980,54.233383 
	C421.050812,40.106441 407.107086,27.428265 393.946136,13.980328 
	C391.714539,11.700052 388.981262,10.069686 386.245209,8.468102 
	C380.362366,5.024536 376.621826,5.374659 372.385681,9.763012 
	C367.554321,14.767973 366.629181,20.434063 369.839172,25.672562 
	C371.414642,28.243666 373.430389,30.465631 375.554108,32.594173 
	C380.848999,37.901169 386.201447,43.151421 391.439484,48.514164 
	C398.345612,55.584679 398.257935,60.951538 390.864014,67.574280 
	C386.389465,71.582130 382.173309,75.835327 377.921295,80.061302 
	C375.549042,82.419014 373.436462,85.006546 371.720886,87.873474 
	C368.515076,93.230751 369.183319,99.538177 373.268768,103.508766 
	C377.692169,107.807785 383.854675,108.344902 389.340179,104.904770 
	C391.188293,103.745773 392.766449,102.261955 394.300934,100.730347 
	C406.091858,88.961563 417.752075,77.057983 429.732727,65.486137 
	C432.394073,62.915619 433.036591,58.382347 437.716736,57.781578 
z"/>
<path fill="#D7D5D5" opacity="1.000000" stroke="none" 
	d="
M438.000000,57.666668 
	C437.701416,57.665558 437.119904,57.051346 436.947021,57.652691 
	C435.183136,63.789177 430.120117,67.309586 425.981415,71.510506 
	C415.458374,82.191620 404.847870,92.787849 394.179138,103.323608 
	C389.280334,108.161354 383.563202,111.034126 376.627655,108.041367 
	C367.200836,103.973595 364.651215,92.780312 371.600067,84.838448 
	C377.181335,78.459579 383.412384,72.645203 389.413544,66.638741 
	C397.104004,58.941494 397.129974,56.682491 389.610474,49.157501 
	C382.902283,42.444454 375.754578,36.141365 369.781372,28.732649 
	C363.448547,20.877861 366.047913,10.003360 375.139496,5.414690 
	C378.626312,3.654837 381.714203,3.348642 385.346191,5.721726 
	C389.545044,8.465168 393.539703,11.306910 397.087555,14.865348 
	C406.027039,23.831476 415.065826,32.698872 424.090759,41.579483 
	C428.907074,46.318779 433.734436,51.041348 437.751648,56.353134 
	C438.000000,56.444447 438.000000,56.888889 438.000000,57.666668 
z"/>
<path fill="#D7D5D5" opacity="1.000000" stroke="none" 
	d="
M55.767952,66.179688 
	C61.665131,72.089600 67.423027,77.637497 72.913315,83.438667 
	C80.331841,91.277283 80.861107,99.781235 74.593323,105.922089 
	C70.014656,110.408043 63.751400,111.467323 58.111927,108.542015 
	C55.007671,106.931778 52.262943,104.780998 49.780170,102.292564 
	C38.375774,90.862160 26.932674,79.470337 15.537607,68.030663 
	C8.064264,60.528065 8.075018,57.206860 15.474513,49.841064 
	C27.507837,37.862556 39.559772,25.902710 51.575661,13.906743 
	C53.945850,11.540481 56.510948,9.504181 59.462833,7.881715 
	C68.474304,2.928682 78.068947,7.669027 80.110268,18.039841 
	C81.111168,23.124802 79.226608,27.098478 75.987366,30.744984 
	C69.682472,37.842583 63.075703,44.635353 56.116070,51.099342 
	C49.647709,57.107056 49.629162,59.431679 55.767952,66.179688 
z"/>
<path fill="#D0CECE" opacity="1.000000" stroke="none" 
	d="
M102.503708,44.108536 
	C102.504219,35.983318 102.504684,35.934879 109.986313,36.006329 
	C113.128487,36.036331 116.286484,35.651352 119.412971,36.489529 
	C126.007980,38.257568 129.018524,41.751556 129.100937,47.937355 
	C129.187408,54.428062 126.194824,58.334103 119.671547,60.127861 
	C118.245163,60.520084 116.768600,60.851105 115.298492,60.942539 
	C107.885742,61.403580 107.883865,61.372486 107.883598,68.657448 
	C107.883537,70.154648 107.783699,71.660011 107.906303,73.147072 
	C108.078537,75.236061 107.390678,76.066170 105.146355,76.086327 
	C102.756058,76.107780 102.469215,74.974968 102.480354,73.038315 
	C102.534874,63.556377 102.504219,54.073956 102.503708,44.108536 
z"/>
<path fill="#CCCACA" opacity="1.000000" stroke="none" 
	d="
M216.120636,35.974316 
	C221.591019,35.974449 226.577744,35.927044 231.562531,36.004356 
	C233.014008,36.026871 235.128006,35.201450 235.006042,38.106594 
	C234.884674,40.997429 232.729950,39.936115 231.350250,39.979046 
	C227.199280,40.108204 223.037689,40.135872 218.888351,39.982952 
	C216.588516,39.898190 215.815872,40.531651 215.703491,42.989193 
	C215.201065,53.977318 215.105988,53.972820 225.829697,53.974506 
	C227.159286,53.974716 228.492081,54.036350 229.817657,53.964264 
	C231.482422,53.873722 232.197495,54.483959 232.135696,56.245552 
	C232.075958,57.947830 231.060287,58.024323 229.828674,58.022934 
	C226.172287,58.018810 222.510345,58.147442 218.861526,57.982040 
	C216.521637,57.875969 215.615921,58.567062 215.727570,61.022675 
	C215.908539,65.003181 215.648804,69.003410 215.819855,72.984802 
	C215.924911,75.429703 215.016678,76.083778 212.669632,76.096870 
	C210.196045,76.110687 210.076782,74.845146 210.083923,72.975426 
	C210.127136,61.674038 210.209198,50.371014 210.057709,39.071487 
	C209.991287,34.116283 213.558594,36.588390 216.120636,35.974316 
z"/>
<path fill="#CCCACA" opacity="1.000000" stroke="none" 
	d="
M146.876755,76.019806 
	C137.579498,75.595116 132.717255,70.667000 132.504044,61.883095 
	C132.302856,53.593273 137.273605,47.530403 144.716888,46.987022 
	C152.574219,46.413418 158.247757,50.983765 159.313416,58.745350 
	C160.632217,68.350441 156.505783,74.281410 146.876755,76.019806 
z"/>
<path fill="#CDCBCB" opacity="1.000000" stroke="none" 
	d="
M310.902039,76.022781 
	C301.417114,75.401733 296.733246,70.245773 296.890991,61.064560 
	C297.030823,52.924961 301.941986,47.386124 309.374237,46.985847 
	C317.348694,46.556366 323.111694,51.550190 323.864258,59.541927 
	C324.740234,68.844193 320.345856,74.618752 310.902039,76.022781 
z"/>
<path fill="#CCCBCB" opacity="1.000000" stroke="none" 
	d="
M249.251801,46.991478 
	C256.804565,47.183182 261.090820,49.679867 262.974182,55.329620 
	C264.973175,61.326115 264.726593,67.225731 260.245758,72.189590 
	C256.705017,76.112015 250.311829,77.148529 245.007446,74.997284 
	C239.431717,72.735992 236.468353,67.050720 237.071060,59.771107 
	C237.659531,52.663364 241.089050,48.940834 249.251801,46.991478 
z"/>
<path fill="#CDCBCB" opacity="1.000000" stroke="none" 
	d="
M189.999023,53.448414 
	C190.538620,49.382664 185.308533,52.556885 185.586899,49.255272 
	C185.835510,46.306522 189.802811,48.344448 190.281387,45.792583 
	C190.647827,43.838661 190.919510,41.859207 191.090332,39.878773 
	C191.230743,38.250637 192.108719,37.380001 193.605484,37.390839 
	C195.412582,37.403915 194.889908,38.962666 194.979187,40.009350 
	C195.063568,40.998768 195.133179,42.023045 194.974335,42.993526 
	C194.424133,46.354961 195.905319,47.291409 199.086304,47.069080 
	C200.496841,46.970493 203.091293,45.725925 203.090256,49.000782 
	C203.089218,52.275105 200.493103,51.033409 199.085098,50.930233 
	C195.881256,50.695465 194.673355,51.661865 194.928207,55.018818 
	C195.229080,58.982281 195.024780,62.986259 194.991669,66.972275 
	C194.961761,70.571320 195.905563,73.139221 200.210892,71.467514 
	C201.931900,70.799263 202.722488,71.316292 203.260483,72.763504 
	C203.892548,74.463791 202.316757,74.556633 201.422455,75.009338 
	C195.509171,78.002693 190.240814,74.961189 190.038132,68.345421 
	C189.890701,63.533085 190.003876,58.712772 189.999023,53.448414 
z"/>
<path fill="#CDCBCB" opacity="1.000000" stroke="none" 
	d="
M271.003113,45.036457 
	C271.003998,42.217651 271.089172,39.888145 270.979340,37.567860 
	C270.890442,35.688999 271.499756,34.922184 273.496185,34.923008 
	C275.484436,34.923824 276.033142,35.676434 276.023926,37.559071 
	C275.965210,49.518620 275.965424,61.478737 276.023804,73.438286 
	C276.032990,75.317841 275.481720,76.021996 273.500854,76.084518 
	C270.963959,76.164581 270.980194,74.738014 270.987274,72.937653 
	C271.023193,63.801804 271.003387,54.665733 271.003113,45.036457 
z"/>
<path fill="#C5C3C3" opacity="1.000000" stroke="none" 
	d="
M343.286957,62.213058 
	C346.530731,54.171322 349.639252,46.490692 352.691986,38.787960 
	C353.582550,36.540878 354.381927,34.323086 358.082245,35.341694 
	C353.269440,47.495872 348.500305,59.562153 343.708313,71.619362 
	C342.914093,73.617813 342.112122,75.623299 341.140747,77.537766 
	C340.468933,78.861877 339.049011,79.485336 337.752686,78.883522 
	C336.052979,78.094414 337.548065,76.877274 337.878937,75.989235 
	C339.556396,71.487511 341.366699,67.035294 343.286957,62.213058 
z"/>
<path fill="#D3D1D1" opacity="1.000000" stroke="none" 
	d="
M170.483292,67.910286 
	C170.479996,70.210594 170.414093,72.036713 170.490997,73.856804 
	C170.568283,75.685974 169.604034,76.075310 168.024094,76.029678 
	C166.733322,75.992371 165.763260,75.866364 165.768692,74.212677 
	C165.796432,65.758430 165.785233,57.304024 165.775345,48.849689 
	C165.773987,47.685520 166.161896,46.957779 167.467804,47.002167 
	C168.477478,47.036484 169.565079,47.010639 169.834259,48.262451 
	C170.072510,49.370491 170.109283,50.521866 170.293320,52.179226 
	C173.319046,49.598896 175.700348,46.314919 180.028671,46.984024 
	C181.384842,47.193668 182.923737,47.173340 182.531464,49.121059 
	C182.276657,50.386326 182.597610,51.943745 180.240250,52.212234 
	C171.606186,53.195602 170.486984,54.640781 170.483414,63.454952 
	C170.482864,64.781120 170.483337,66.107292 170.483292,67.910286 
z"/>
<path fill="#CBC9C9" opacity="1.000000" stroke="none" 
	d="
M289.740295,75.530350 
	C286.546112,76.431877 284.844299,76.062614 285.009521,72.267494 
	C285.326996,64.975471 285.133331,57.659637 285.081970,50.354172 
	C285.067993,48.368980 285.031738,46.841362 287.838959,46.902485 
	C290.581604,46.962196 290.113068,48.672382 290.110687,50.259087 
	C290.098206,58.560135 290.060577,66.861145 289.740295,75.530350 
z"/>
<path fill="#CBC9C9" opacity="1.000000" stroke="none" 
	d="
M289.456879,35.538773 
	C291.429535,37.396877 291.716888,39.123264 290.085083,40.920006 
	C288.952484,42.167065 287.508362,42.416943 286.099091,41.567154 
	C284.792511,40.779289 283.741394,39.528156 284.253174,37.904491 
	C284.987152,35.575890 286.582001,34.413971 289.456879,35.538773 
z"/>
<path fill="#040404" opacity="1.000000" stroke="none" 
	d="
M107.875145,46.066044 
	C108.583138,43.741459 106.075348,40.723774 109.867538,40.024651 
	C116.214890,38.854454 121.207428,40.556271 123.022446,44.457550 
	C125.559570,49.910961 122.403755,55.948776 116.443771,56.887623 
	C114.983017,57.117737 113.443253,56.823853 111.972679,57.018784 
	C108.819939,57.436703 107.398125,56.408817 107.825394,53.020664 
	C108.093292,50.896336 107.875191,48.710716 107.875145,46.066044 
z"/>
<path fill="#030303" opacity="1.000000" stroke="none" 
	d="
M146.819183,71.978287 
	C140.096191,71.470749 137.845413,68.828140 137.770493,61.835911 
	C137.699432,55.202301 140.059662,51.550507 144.756790,51.026512 
	C149.761688,50.468189 153.108658,52.917740 154.016220,57.803196 
	C155.486008,65.715202 153.319931,70.237762 146.819183,71.978287 
z"/>
<path fill="#070707" opacity="1.000000" stroke="none" 
	d="
M313.270325,51.267277 
	C319.036835,55.184940 320.661926,63.793381 316.831787,68.981049 
	C314.147766,72.616371 310.435089,72.839508 306.635284,71.193146 
	C302.772247,69.519402 300.961395,63.862278 302.253784,58.051842 
	C303.268463,53.490162 305.801636,50.627281 310.908478,51.011330 
	C311.569214,51.061020 312.231384,51.091850 313.270325,51.267277 
z"/>
<path fill="#070707" opacity="1.000000" stroke="none" 
	d="
M242.937073,56.284660 
	C244.893875,51.426620 248.551056,50.276051 252.812149,51.165829 
	C257.024017,52.045334 258.479645,55.554008 258.801147,59.372551 
	C259.182251,63.899307 259.140533,68.542534 254.439850,71.172462 
	C249.336380,74.027733 243.795074,71.125923 242.449005,65.020699 
	C241.831665,62.220646 241.936295,59.419025 242.937073,56.284660 
z"/>
</svg>